<svg width="906" height="834" viewBox="0 0 906 834" fill="none" xmlns="http://www.w3.org/2000/svg">
<rect width="906" height="834" rx="60" fill="url(#paint0_linear_195_28)"/>
<path fill-rule="evenodd" clip-rule="evenodd" d="M473.72 217.221C473.436 217.686 472.902 221.217 472.534 225.067C471.79 232.856 472.792 232.578 475.599 224.216C477.044 219.911 477.059 219.198 475.732 217.871C474.91 217.048 474.004 216.756 473.72 217.221ZM447.5 233.567C447.16 234.117 447.584 234.567 448.441 234.567C449.298 234.567 450 234.117 450 233.567C450 233.017 449.577 232.567 449.059 232.567C448.541 232.567 447.84 233.017 447.5 233.567ZM563.469 237.617C562.571 239.071 554 264.769 554 266.009C554 266.573 559.151 261.898 565.447 255.62C571.743 249.342 576.66 243.826 576.374 243.364C575.275 241.584 564.094 236.606 563.469 237.617ZM406.048 242.016C404.782 243.363 403.972 245.051 404.247 245.766C405.281 248.454 416.461 262.684 416.782 261.721C417.079 260.83 409.225 239.567 408.598 239.567C408.461 239.567 407.313 240.669 406.048 242.016ZM520.622 253.708C520.117 256.233 520.549 257.751 522.625 260.747C524.081 262.848 525.661 264.567 526.136 264.567C526.611 264.567 526.984 264.455 526.965 264.317C526.512 261.093 523.045 251.082 522.295 250.832C521.729 250.643 520.976 251.938 520.622 253.708ZM437.561 265.714L433.927 269.067L440.51 281.567C446.3 292.563 447.047 293.586 446.715 290.067C446.024 282.751 442.707 264.08 441.945 263.214C441.532 262.745 439.559 263.87 437.561 265.714ZM472.124 268.724C470.945 271.56 470.175 274.075 470.412 274.312C470.75 274.65 478.939 270.421 480.921 268.885C481.629 268.336 476.731 263.567 475.459 263.567C474.803 263.567 473.302 265.888 472.124 268.724ZM275 271.081C275 272.81 279.796 278.544 281.25 278.555C284.072 278.575 283.268 276.009 279.567 273.186C276.192 270.612 275 270.062 275 271.081ZM520.5 285.567C520.16 286.117 520.359 286.567 520.941 286.567C521.523 286.567 522 286.117 522 285.567C522 285.017 521.802 284.567 521.559 284.567C521.316 284.567 520.84 285.017 520.5 285.567ZM332.915 286.15C332.739 288.036 333.179 298.078 333.448 298.348C334.036 298.936 339.986 295.02 339.952 294.067C339.905 292.725 333.023 284.983 332.915 286.15ZM624.449 289.035C622.899 292.744 622.624 294.567 623.614 294.567C624.773 294.567 632 290.199 632 289.498C632 288.768 627.508 285.567 626.484 285.567C626.162 285.567 625.246 287.128 624.449 289.035ZM691.25 288.133C686.884 290.75 686.281 291.961 688.047 294.567C688.888 295.808 689.747 295.291 693.029 291.567C698.887 284.92 698.348 283.879 691.25 288.133ZM231 287.581C231 289.286 235.427 295.541 236.643 295.555C237.272 295.561 238.091 294.78 238.463 293.817C238.944 292.574 238.19 291.271 235.858 289.317C232.389 286.411 231 285.914 231 287.581ZM499.25 287.285C498.563 287.532 498 288.582 498 289.619C498 291.75 500.502 291.308 501.379 289.022C501.997 287.413 501.049 286.64 499.25 287.285ZM527.683 293.261C525.011 305.355 524.828 306.567 525.671 306.552C526.758 306.531 535.5 294.041 535.5 292.507C535.5 291.856 534.079 290.228 532.343 288.889L529.186 286.454L527.683 293.261ZM404.625 292.437L401.762 295.425L409.859 299.496C414.312 301.735 418.221 303.567 418.546 303.567C419.293 303.567 416.144 299.325 411.265 293.758L407.488 289.448L404.625 292.437ZM582.958 297.178C581.388 301.308 582.292 302.08 585.484 299.334L588.382 296.842L586.181 295.664C584.223 294.616 583.869 294.782 582.958 297.178ZM472.667 298.234C471.557 299.344 471.921 305.567 473.096 305.567C474.773 305.567 479.877 301.666 481.037 299.497C481.985 297.727 481.708 297.567 477.702 297.567C475.299 297.567 473.033 297.867 472.667 298.234ZM482.943 299.817C482.324 301.054 479.27 304.42 476.158 307.297L470.5 312.526L473 314.525C474.375 315.624 477.411 317.321 479.746 318.295C482.082 319.27 483.994 320.467 483.996 320.956C483.998 321.446 481.602 324.821 478.672 328.456C466.971 342.973 466.006 344.516 465.882 348.894C465.774 352.693 465.705 352.798 465.116 350.067C464.48 347.118 464.385 347.201 459.568 354.918C456.872 359.237 454.677 363.287 454.691 363.918C454.704 364.55 458.941 371.453 464.107 379.257C469.273 387.062 475.717 396.927 478.426 401.179L483.351 408.91L479.926 411.783L476.5 414.655L479.292 419.861C482.044 424.991 482.048 425.027 479.595 422.323C478.226 420.813 476.653 418.788 476.1 417.823C475.233 416.309 472.955 418.198 459.547 431.555C450.996 440.073 444 447.654 444 448.401C444 449.147 444.842 450.953 445.872 452.413C448.892 456.696 453.187 465.713 452.523 466.377C452.187 466.714 450.866 465.677 449.588 464.075C446.838 460.626 447.499 459.13 442.871 479.287C441.075 487.107 439.807 493.697 440.053 493.93C440.299 494.163 443.646 494.514 447.491 494.71L454.483 495.067L454.174 491.418C454.003 489.411 454.332 487.48 454.903 487.127C455.867 486.531 456.474 488.085 457.223 493.067C457.499 494.903 458.403 495.09 468.234 495.351C478.691 495.627 478.956 495.58 479.405 493.351C480.008 490.359 492.765 398.779 493.618 391.316L494.276 385.565L485.388 381.549C473.346 376.108 473.544 376.247 473.166 372.966C472.983 371.372 472.083 369.214 471.166 368.171C469.573 366.359 469.598 366.328 471.731 367.447C472.958 368.09 474.598 369.83 475.374 371.311C476.415 373.298 479.109 374.975 485.643 377.701C490.514 379.734 494.819 381.094 495.209 380.723C495.598 380.353 496.844 374.204 497.976 367.058C500.078 353.792 500.723 350.957 501.47 351.704C502.318 352.552 509.093 394.811 513.473 426.567C513.663 427.942 515.285 442.865 517.078 459.729C520.271 489.758 520.302 490.488 518.572 495.019C514.576 505.482 507.604 510.076 495.887 509.967L488.274 509.896L486.548 522.496C485.598 529.426 484.974 536.439 485.161 538.081C485.494 541.013 485.636 541.082 493 541.899C510.493 543.839 526.26 538.655 537.161 527.38L542.822 521.524L545.489 529.535C546.957 533.941 548.531 537.777 548.988 538.06C550.227 538.825 559 534.82 559 533.489C559 530.089 554.471 524.661 549.815 522.48C547.094 521.206 544.679 519.857 544.448 519.483C544.217 519.108 546.455 513.687 549.422 507.435C555.505 494.618 592.134 409.368 591.731 408.965C591.588 408.822 582.479 411.08 571.489 413.983L551.508 419.262L549.504 425.846C548.402 429.468 547.217 432.707 546.872 433.044C546.526 433.381 545.931 430.327 545.55 426.257L544.857 418.857L537.428 420.584C533.343 421.533 530 421.967 530 421.547C530 421.128 532.917 420.204 536.482 419.496C540.047 418.787 543.445 417.91 544.034 417.546C544.793 417.077 544.78 407.478 543.991 384.476C543.379 366.651 542.653 350.155 542.378 347.817L541.877 343.567H522.439C504.027 343.567 503 343.467 503 341.672C503 340.086 507.24 307.044 508.371 299.817C508.72 297.586 508.617 297.567 496.397 297.567C484.614 297.567 484.021 297.666 482.943 299.817ZM274.962 303.369C282.557 308.605 289.135 313.765 288.73 314.17C288.475 314.425 284.58 312.348 280.075 309.554C268.875 302.607 268.293 302.443 260.958 304.154C245.082 307.858 231.754 318.182 225.185 331.866C221.351 339.853 219.842 345.407 220.949 347.46C222.529 350.388 226.441 353.384 231 355.156C235.264 356.814 241.187 360.35 238 359.336C228.227 356.225 225.102 355.007 222.846 353.426C218.366 350.289 218 350.856 218 360.931C218 372.978 219.268 379.55 223.108 387.398C227.562 396.503 234.274 402.605 255.619 416.954C266.003 423.935 275.186 430.192 276.023 430.857C279.011 433.23 282 437.874 282 440.143C282 441.411 282.478 442.744 283.062 443.105C283.646 443.466 293.096 441.383 304.062 438.476C326.788 432.452 325.469 433.626 322.467 422.102C318.682 407.571 312.302 400.61 287.372 383.812C268.283 370.95 264.002 367.225 261.551 361.349C258.34 353.65 260.807 343.98 267.133 339.468C271.869 336.09 283.001 335.998 287.627 339.297C292.217 342.572 294.365 347.821 294.823 356.882C295.113 362.616 295.552 364.569 296.471 364.216C297.16 363.952 304.199 362.525 312.112 361.046C320.025 359.566 327.175 358.109 328 357.808C328.825 357.506 330.314 357.362 331.31 357.486C335.418 358.001 336.271 355.734 335.531 346.272C334.406 331.896 329.945 321.458 321.661 313.822C312.33 305.221 300.769 301.577 283 301.637C272.818 301.671 272.575 301.723 274.962 303.369ZM557.536 305.299C553.829 310.754 554.435 311.525 558.959 307.107C562.578 303.574 563.309 301.567 560.977 301.567C560.479 301.567 558.931 303.246 557.536 305.299ZM464.2 305.767C463.54 306.427 463 307.552 463 308.267C463 310.103 465.939 309.888 466.664 308C467.491 305.846 465.723 304.244 464.2 305.767ZM652.653 310.178C642.288 311.965 633.634 313.6 633.423 313.811C633.059 314.175 629 340.617 629 342.622C629 343.191 618.897 343.567 603.636 343.567H578.272L576.708 347.817C567.628 372.496 553.016 414.917 553.447 415.348C553.75 415.65 556.36 415.21 559.248 414.37C562.137 413.53 570.575 411.157 578 409.096C585.425 407.035 592.117 405.048 592.87 404.681C593.624 404.313 595.78 400.2 597.662 395.54C599.544 390.88 602.24 384.255 603.654 380.817L606.225 374.567H614.446C618.967 374.567 622.896 374.796 623.176 375.077C623.457 375.357 622.635 381.544 621.35 388.827C613.851 431.336 609.816 460.231 610.279 468.106C611.076 481.653 616.732 489.847 628.229 494.112C632.632 495.745 636.084 496.067 649.201 496.067C660.003 496.067 665.272 495.696 666.09 494.877C667.178 493.789 670.875 471.511 670.963 465.52C671 463.006 670.915 462.978 664.502 463.386C652.418 464.155 649.774 459.605 652.362 442.489C654.438 428.759 660.817 386.423 661.767 380.067L662.515 375.067L673.116 374.785L683.718 374.502L685.343 364.285C686.236 358.665 687.258 351.704 687.613 348.817L688.258 343.567H678.188C672.649 343.567 667.925 343.229 667.689 342.817C667.453 342.405 668.329 335.767 669.637 328.067C670.945 320.367 671.899 312.461 671.757 310.498L671.5 306.929L652.653 310.178ZM407 312.067C407 313.577 407.571 314.567 408.441 314.567C410.551 314.567 411.354 312.698 409.964 311.023C408.16 308.85 407 309.258 407 312.067ZM489.333 316.737C488.315 318.48 486.854 320.116 486.087 320.371C485.32 320.627 485.941 319.2 487.465 317.201C490.881 312.723 491.813 312.491 489.333 316.737ZM436.446 315.654C435.416 317.322 437.733 319.234 439.113 317.854C440.267 316.7 439.545 314.567 438 314.567C437.515 314.567 436.816 315.056 436.446 315.654ZM530.02 316.043C529.231 316.993 529.155 317.567 529.819 317.567C531.027 317.567 532.436 315.67 531.743 314.976C531.491 314.725 530.716 315.205 530.02 316.043ZM675.75 320.959C674.788 321.69 674 322.816 674 323.462C674 325.076 677.568 323.134 678.351 321.095C679.065 319.234 678.09 319.183 675.75 320.959ZM412.079 324.977C410.748 326.397 409.848 327.719 410.079 327.916C410.84 328.56 420.235 330.666 420.622 330.279C420.83 330.071 419.538 328.211 417.75 326.147L414.5 322.394L412.079 324.977ZM246 324.567C246 325.117 245.577 325.567 245.059 325.567C244.541 325.567 243.84 325.117 243.5 324.567C243.16 324.017 243.584 323.567 244.441 323.567C245.298 323.567 246 324.017 246 324.567ZM447.565 327.817C447.36 328.505 446.043 332.888 444.638 337.559C443.234 342.23 442.406 346.373 442.8 346.767C443.194 347.161 446.753 343.263 450.71 338.106L457.905 328.729L454.803 327.648C450.701 326.218 448.023 326.281 447.565 327.817ZM518 329.066C516.986 330.288 516.956 330.923 517.87 331.837C519.299 333.266 522.5 331.631 522.5 329.472C522.5 327.478 519.54 327.211 518 329.066ZM196 329.262C196 330.254 201.214 335.567 202.187 335.567C202.634 335.567 203 334.431 203 333.042C203 331.252 202.254 330.234 200.435 329.542C197.41 328.392 196 328.303 196 329.262ZM404.487 344.307C397.158 346.927 390.829 350.907 386.669 355.512C384.654 357.742 382.743 359.567 382.423 359.567C382.103 359.567 382.078 358.329 382.367 356.817C382.656 355.305 383.183 352.144 383.538 349.795L384.183 345.522L365.342 345.795L346.5 346.067L344.865 357.567C343.966 363.892 341.628 378.742 339.67 390.567C334.662 420.807 333.575 428.476 334.207 429.107C335.33 430.23 372.716 420.126 374.591 418.192C375.191 417.573 376.668 412.117 377.873 406.067C380.435 393.216 385.505 381.767 390.079 378.511C394.384 375.445 400.486 374.835 404.614 377.058C409.663 379.777 411.342 385.202 410.821 397.112L410.4 406.735L412.95 406.257C417.982 405.314 450.921 396.734 451.949 396.098C452.527 395.741 453 394.991 453 394.432C453 393.181 446.715 384.976 436.634 373.067C432.444 368.117 429.012 363.666 429.008 363.175C429.004 362.684 431.077 359.852 433.615 356.881C438.058 351.68 438.165 351.407 436.483 349.548C431.022 343.514 414.348 340.783 404.487 344.307ZM426.72 363.181C425.435 364.465 423 362.557 423 360.265C423 356.522 424.333 356.169 425.907 359.493C426.703 361.173 427.068 362.832 426.72 363.181ZM703.497 359.322C701.298 360.915 696.125 365.037 692 368.484C680.149 378.384 681.004 378.83 697.499 371.354C709.831 365.764 710.05 365.505 708.148 358.747L707.495 356.426L703.497 359.322ZM252.582 369.319C252.001 369.9 246.247 366.775 245.412 365.425C245.019 364.789 246.561 365.316 248.838 366.596C251.115 367.876 252.799 369.101 252.582 369.319ZM518.683 374.755C518.364 375.552 518.127 375.315 518.079 374.15C518.036 373.096 518.272 372.506 518.604 372.838C518.936 373.17 518.972 374.033 518.683 374.755ZM327 383.65C327 386.956 328.564 387.22 330.429 384.229C331.242 382.924 331.139 382.28 330 381.554C327.563 380 327 380.394 327 383.65ZM200 392.45C200 395.494 201.844 396.565 207 396.516C209.383 396.493 209.312 396.33 205.5 393.044C203.3 391.148 201.162 389.59 200.75 389.582C200.338 389.574 200 390.865 200 392.45ZM500 396.402C500 396.953 499.758 398.035 499.461 398.807C499.135 399.657 499.911 400.661 501.426 401.351C504.469 402.738 505.278 401.751 503.689 398.59C502.448 396.121 500 394.669 500 396.402ZM431 404.507C420.275 407.017 410.938 409.434 410.25 409.878C409.563 410.322 408.999 412.121 408.999 413.876C408.997 418.179 404.696 435.672 401.651 443.761C395.647 459.714 387.86 465.649 378.967 461.05C372.804 457.863 371.151 449.583 373.385 433.086C374.203 427.047 374.741 421.974 374.581 421.814C374.205 421.438 341.211 430.287 338.25 431.558C336.659 432.241 336 433.37 336 435.412C336 437 333.998 450.398 331.55 465.183C327.598 489.066 322.532 520.625 321.537 527.567C321.34 528.942 320.461 534.342 319.584 539.567C318.707 544.792 317.735 550.59 317.424 552.451C316.928 555.424 317.08 555.749 318.68 555.126C319.681 554.736 328.741 552.472 338.814 550.094C348.887 547.717 357.37 545.53 357.665 545.236C358.086 544.814 361.942 518.953 367.154 481.589C367.475 479.288 367.755 479.466 371.074 484.089C375.878 490.78 381.14 494.189 388.75 495.543C407.21 498.827 424.4 488.118 435.968 466.128L438.99 460.384L434.805 452.663L430.621 444.942L440.336 434.069C449.846 423.426 457 413.8 457 411.648C457 409.986 455.08 410.359 452.273 412.567C449.026 415.121 438.923 415.569 441 413.067C441.685 412.242 443.47 411.567 444.967 411.567C446.465 411.567 448.378 410.78 449.218 409.817C450.959 407.824 452.46 400.922 451.281 400.333C450.851 400.118 441.725 401.996 431 404.507ZM672 417.535C670.045 419.039 669.763 419.723 670.708 420.671C672.074 422.041 674.344 420.661 676.09 417.399C677.414 414.924 675.302 414.994 672 417.535ZM425.5 424.53C427.685 425.429 427.064 425.838 421.75 427.003C419.809 427.428 419 427.207 419 426.253C419 423.535 421.481 422.877 425.5 424.53ZM209.667 427.234C208.307 428.593 209.062 430.567 210.941 430.567C213.437 430.567 214.666 428.603 212.878 427.471C211.205 426.411 210.538 426.362 209.667 427.234ZM485 431.96C485 432.176 484.302 432.621 483.448 432.949C482.558 433.29 482.157 433.122 482.507 432.556C483.094 431.605 485 431.15 485 431.96ZM223.5 438.209C213.6 440.021 204.027 441.765 202.227 442.085L198.954 442.666L199.564 449.367C200.709 461.958 206.552 476.397 213.85 484.67C224.658 496.92 249.079 503.151 270.463 499.115C279.315 497.444 279.491 497.353 284.779 491.745C290.014 486.193 290.634 486.235 286.727 491.875C285.657 493.419 285.023 494.923 285.317 495.218C285.612 495.512 289.031 494.083 292.915 492.042C305.232 485.57 315.328 473.92 320.457 460.264C322.978 453.551 325.694 438.928 324.62 437.853C324.255 437.489 320.929 437.902 317.228 438.772C313.528 439.641 304.311 441.821 296.747 443.615L282.994 446.877L281.955 450.735C278.707 462.795 262.347 468.645 252.618 461.225C248.171 457.833 244.153 449.32 243.343 441.574C242.994 438.236 242.437 435.372 242.104 435.21C241.772 435.048 233.4 436.397 223.5 438.209ZM501.72 445.155C500.192 445.984 499.21 447.097 499.538 447.629C500.523 449.223 508 452.692 508 451.555C508 450.356 505.259 443.546 504.801 443.607C504.635 443.629 503.249 444.325 501.72 445.155ZM502 464.567C502 465.117 502.675 465.567 503.5 465.567C504.325 465.567 505 465.117 505 464.567C505 464.017 504.325 463.567 503.5 463.567C502.675 463.567 502 464.017 502 464.567ZM681.172 469.223C681.365 470.224 682.305 471.195 683.261 471.379C685.682 471.845 685.44 469.873 682.911 468.519C681.121 467.562 680.872 467.663 681.172 469.223ZM428.473 490.954L420.619 502.84L422.92 504.704C425.952 507.158 426.448 507.071 427.94 503.817C431.577 495.882 437.035 481.173 436.705 480.192C436.497 479.573 432.792 484.416 428.473 490.954ZM488.514 489.544C487.649 490.944 489.904 494.766 491.318 494.295C491.968 494.078 492.64 493.181 492.81 492.302C493.174 490.425 489.448 488.033 488.514 489.544ZM196.431 495.679C196.053 496.29 196.34 497.159 197.068 497.609C198.661 498.594 202.301 496.863 201.469 495.517C200.662 494.211 197.271 494.32 196.431 495.679ZM592.553 506.482C592.231 507.003 592.394 507.692 592.915 508.014C593.436 508.336 594.125 508.173 594.447 507.652C594.769 507.131 594.606 506.442 594.085 506.12C593.564 505.798 592.875 505.961 592.553 506.482ZM431.981 509.09C430.954 510.328 431.021 511.311 432.342 514.34C433.235 516.39 434.44 519.378 435.02 520.98C435.716 522.904 436.411 523.556 437.065 522.902C438.122 521.845 435.202 507.567 433.929 507.567C433.553 507.567 432.676 508.252 431.981 509.09ZM315.569 510.092C313.678 511.522 313.688 511.606 316.039 514.108C318.23 516.441 318.502 516.507 319.15 514.866C320.307 511.932 320.093 508.565 318.75 508.599C318.063 508.616 316.631 509.288 315.569 510.092ZM456 510.567C456 511.117 456.675 511.567 457.5 511.567C458.325 511.567 459 511.117 459 510.567C459 510.017 458.325 509.567 457.5 509.567C456.675 509.567 456 510.017 456 510.567ZM221 529.249C216.875 531.79 211.7 535.038 209.5 536.466L205.5 539.062L211.5 539.639C214.8 539.956 218.079 540.016 218.786 539.771C219.866 539.397 227.013 530.005 229.404 525.817C230.611 523.704 228.799 524.444 221 529.249ZM260.667 526.234C260.3 526.6 260 527.5 260 528.234C260 530.004 262.639 529.949 263.324 528.165C264.132 526.059 262.226 524.674 260.667 526.234ZM299.066 527.987C298.318 528.889 296.226 531.973 294.418 534.84C291.368 539.678 291.247 540.183 292.742 541.835C293.629 542.814 294.772 543.476 295.282 543.306C296.301 542.967 301.138 528.591 300.699 527.207C300.549 526.735 299.815 527.086 299.066 527.987ZM473.534 530.817C474.496 535.324 476.737 540.568 477.699 540.561C478.582 540.554 482 534.941 482 533.499C482 532.633 474.69 527.567 473.44 527.567C473.111 527.567 473.153 529.029 473.534 530.817ZM413.575 532.146C408.512 534 408.547 533.945 410.535 536.98C412.893 540.578 414.174 540.245 417.893 535.067C421.531 530.001 420.793 529.502 413.575 532.146ZM450.373 533.317C450.652 534.279 451.385 537.092 452 539.567C454.254 548.63 454.22 548.589 457.433 546.239C459.15 544.985 459.039 544.545 455.412 538.239C451.786 531.936 449.255 529.463 450.373 533.317ZM598.192 542.402C602.621 550.215 604.68 553.169 605.276 552.567C605.549 552.292 606.046 550.267 606.381 548.067C606.981 544.129 606.906 544.008 601.555 540.317C598.566 538.255 595.842 536.567 595.502 536.567C595.162 536.567 596.373 539.193 598.192 542.402ZM426.603 552.216C423.521 556.973 421 561.388 421 562.029C421 562.669 422.301 564.44 423.892 565.963L426.784 568.734L428.318 563.901C429.162 561.242 430.586 556.367 431.483 553.067C432.379 549.767 433.343 546.279 433.624 545.317C434.822 541.214 431.817 544.165 426.603 552.216ZM381.5 563.956C379.611 565.362 379.595 565.541 381.213 567.183C382.77 568.764 382.983 568.774 383.548 567.303C383.89 566.412 384.019 564.96 383.835 564.075C383.536 562.639 383.286 562.626 381.5 563.956ZM464 566.889C464 567.066 464.717 569.316 465.594 571.889C467.153 576.465 468.28 577.541 469.479 575.601C470.221 574.401 466.32 566.567 464.98 566.567C464.441 566.567 464 566.712 464 566.889ZM298.639 573.261C297.513 574.387 297.954 575.567 299.5 575.567C300.325 575.567 301 575.144 301 574.626C301 573.365 299.438 572.462 298.639 573.261ZM330 577.567C330 578.117 330.45 578.567 331 578.567C331.55 578.567 332 578.117 332 577.567C332 577.017 331.55 576.567 331 576.567C330.45 576.567 330 577.017 330 577.567ZM400.469 587.617C399.519 589.155 400.82 590.147 402.104 588.863C402.822 588.145 402.839 587.586 402.156 587.164C401.596 586.818 400.837 587.022 400.469 587.617ZM500.122 594.492C504.172 601.859 509.971 609.93 510.694 609.206C511.344 608.557 504.816 596.406 501.352 591.817C497.349 586.515 496.615 588.113 500.122 594.492ZM325.307 593.817C322.462 596.951 319.636 601.536 320.2 602.101C320.46 602.36 322.304 601.333 324.299 599.819C326.892 597.853 327.938 596.282 327.964 594.317C328.008 590.991 327.891 590.969 325.307 593.817ZM424.75 592.144C424.337 592.56 424 593.815 424 594.934C424 596.405 424.302 596.665 425.094 595.873C425.695 595.272 426.033 594.016 425.844 593.084C425.655 592.151 425.163 591.728 424.75 592.144ZM388.692 604.317C387.439 606.524 384.881 615.781 385.385 616.285C385.976 616.876 391 606.364 391 604.538C391 603.395 389.308 603.233 388.692 604.317Z" fill="#3150A3"/>
<defs>
<linearGradient id="paint0_linear_195_28" x1="453" y1="0" x2="453" y2="834" gradientUnits="userSpaceOnUse">
<stop stop-color="white"/>
<stop offset="1" stop-color="#D8D8D8"/>
</linearGradient>
</defs>
</svg>
