<svg width="514" height="400" viewBox="0 0 514 400" fill="none" xmlns="http://www.w3.org/2000/svg">
<path fill-rule="evenodd" clip-rule="evenodd" d="M277.72 0.221269C277.436 0.68627 276.902 4.21727 276.534 8.06727C275.79 15.8563 276.792 15.5783 279.599 7.21627C281.044 2.91127 281.059 2.19827 279.732 0.871271C278.91 0.048271 278.004 -0.243731 277.72 0.221269ZM251.5 16.5673C251.16 17.1173 251.584 17.5673 252.441 17.5673C253.298 17.5673 254 17.1173 254 16.5673C254 16.0173 253.577 15.5673 253.059 15.5673C252.541 15.5673 251.84 16.0173 251.5 16.5673ZM367.469 20.6173C366.571 22.0713 358 47.7693 358 49.0093C358 49.5733 363.151 44.8983 369.447 38.6203C375.743 32.3423 380.66 26.8263 380.374 26.3643C379.275 24.5843 368.094 19.6063 367.469 20.6173ZM210.048 25.0163C208.782 26.3633 207.972 28.0513 208.247 28.7663C209.281 31.4543 220.461 45.6843 220.782 44.7213C221.079 43.8303 213.225 22.5673 212.598 22.5673C212.461 22.5673 211.313 23.6693 210.048 25.0163ZM324.622 36.7083C324.117 39.2333 324.549 40.7513 326.625 43.7473C328.081 45.8483 329.661 47.5673 330.136 47.5673C330.611 47.5673 330.984 47.4553 330.965 47.3173C330.512 44.0933 327.045 34.0823 326.295 33.8323C325.729 33.6433 324.976 34.9383 324.622 36.7083ZM241.561 48.7143L237.927 52.0673L244.51 64.5673C250.3 75.5633 251.047 76.5863 250.715 73.0673C250.024 65.7513 246.707 47.0803 245.945 46.2143C245.532 45.7453 243.559 46.8703 241.561 48.7143ZM276.124 51.7243C274.945 54.5603 274.175 57.0753 274.412 57.3123C274.75 57.6503 282.939 53.4213 284.921 51.8853C285.629 51.3363 280.731 46.5673 279.459 46.5673C278.803 46.5673 277.302 48.8883 276.124 51.7243ZM79 54.0813C79 55.8103 83.796 61.5443 85.25 61.5553C88.072 61.5753 87.268 59.0093 83.567 56.1863C80.192 53.6123 79 53.0623 79 54.0813ZM324.5 68.5673C324.16 69.1173 324.359 69.5673 324.941 69.5673C325.523 69.5673 326 69.1173 326 68.5673C326 68.0173 325.802 67.5673 325.559 67.5673C325.316 67.5673 324.84 68.0173 324.5 68.5673ZM136.915 69.1503C136.739 71.0363 137.179 81.0783 137.448 81.3483C138.036 81.9363 143.986 78.0203 143.952 77.0673C143.905 75.7253 137.023 67.9833 136.915 69.1503ZM428.449 72.0353C426.899 75.7443 426.624 77.5673 427.614 77.5673C428.773 77.5673 436 73.1993 436 72.4983C436 71.7683 431.508 68.5673 430.484 68.5673C430.162 68.5673 429.246 70.1283 428.449 72.0353ZM495.25 71.1333C490.884 73.7503 490.281 74.9613 492.047 77.5673C492.888 78.8083 493.747 78.2913 497.029 74.5673C502.887 67.9203 502.348 66.8793 495.25 71.1333ZM35 70.5813C35 72.2863 39.427 78.5413 40.643 78.5553C41.272 78.5613 42.091 77.7803 42.463 76.8173C42.944 75.5743 42.19 74.2713 39.858 72.3173C36.389 69.4113 35 68.9143 35 70.5813ZM303.25 70.2853C302.563 70.5323 302 71.5823 302 72.6193C302 74.7503 304.502 74.3083 305.379 72.0223C305.997 70.4133 305.049 69.6403 303.25 70.2853ZM331.683 76.2613C329.011 88.3553 328.828 89.5673 329.671 89.5523C330.758 89.5313 339.5 77.0413 339.5 75.5073C339.5 74.8563 338.079 73.2283 336.343 71.8893L333.186 69.4543L331.683 76.2613ZM208.625 75.4373L205.762 78.4253L213.859 82.4963C218.312 84.7353 222.221 86.5673 222.546 86.5673C223.293 86.5673 220.144 82.3253 215.265 76.7583L211.488 72.4483L208.625 75.4373ZM386.958 80.1783C385.388 84.3083 386.292 85.0803 389.484 82.3343L392.382 79.8423L390.181 78.6643C388.223 77.6163 387.869 77.7823 386.958 80.1783ZM276.667 81.2343C275.557 82.3443 275.921 88.5673 277.096 88.5673C278.773 88.5673 283.877 84.6663 285.037 82.4973C285.985 80.7273 285.708 80.5673 281.702 80.5673C279.299 80.5673 277.033 80.8673 276.667 81.2343ZM286.943 82.8173C286.324 84.0543 283.27 87.4203 280.158 90.2973L274.5 95.5263L277 97.5253C278.375 98.6243 281.411 100.321 283.746 101.295C286.082 102.27 287.994 103.467 287.996 103.956C287.998 104.446 285.602 107.821 282.672 111.456C270.971 125.973 270.006 127.516 269.882 131.894C269.774 135.693 269.705 135.798 269.116 133.067C268.48 130.118 268.385 130.201 263.568 137.918C260.872 142.237 258.677 146.287 258.691 146.918C258.704 147.55 262.941 154.453 268.107 162.257C273.273 170.062 279.717 179.927 282.426 184.179L287.351 191.91L283.926 194.783L280.5 197.655L283.292 202.861C286.044 207.991 286.048 208.027 283.595 205.323C282.226 203.813 280.653 201.788 280.1 200.823C279.233 199.309 276.955 201.198 263.547 214.555C254.996 223.073 248 230.654 248 231.401C248 232.147 248.842 233.953 249.872 235.413C252.892 239.696 257.187 248.713 256.523 249.377C256.187 249.714 254.866 248.677 253.588 247.075C250.838 243.626 251.499 242.13 246.871 262.287C245.075 270.107 243.807 276.697 244.053 276.93C244.299 277.163 247.646 277.514 251.491 277.71L258.483 278.067L258.174 274.418C258.003 272.411 258.332 270.48 258.903 270.127C259.867 269.531 260.474 271.085 261.223 276.067C261.499 277.903 262.403 278.09 272.234 278.351C282.691 278.627 282.956 278.58 283.405 276.351C284.008 273.359 296.765 181.779 297.618 174.316L298.276 168.565L289.388 164.549C277.346 159.108 277.544 159.247 277.166 155.966C276.983 154.372 276.083 152.214 275.166 151.171C273.573 149.359 273.598 149.328 275.731 150.447C276.958 151.09 278.598 152.83 279.374 154.311C280.415 156.298 283.109 157.975 289.643 160.701C294.514 162.734 298.819 164.094 299.209 163.723C299.598 163.353 300.844 157.204 301.976 150.058C304.078 136.792 304.723 133.957 305.47 134.704C306.318 135.552 313.093 177.811 317.473 209.567C317.663 210.942 319.285 225.865 321.078 242.729C324.271 272.758 324.302 273.488 322.572 278.019C318.576 288.482 311.604 293.076 299.887 292.967L292.274 292.896L290.548 305.496C289.598 312.426 288.974 319.439 289.161 321.081C289.494 324.013 289.636 324.082 297 324.899C314.493 326.839 330.26 321.655 341.161 310.38L346.822 304.524L349.489 312.535C350.957 316.941 352.531 320.777 352.988 321.06C354.227 321.825 363 317.82 363 316.489C363 313.089 358.471 307.661 353.815 305.48C351.094 304.206 348.679 302.857 348.448 302.483C348.217 302.108 350.455 296.687 353.422 290.435C359.505 277.618 396.134 192.368 395.731 191.965C395.588 191.822 386.479 194.08 375.489 196.983L355.508 202.262L353.504 208.846C352.402 212.468 351.217 215.707 350.872 216.044C350.526 216.381 349.931 213.327 349.55 209.257L348.857 201.857L341.428 203.584C337.343 204.533 334 204.967 334 204.547C334 204.128 336.917 203.204 340.482 202.496C344.047 201.787 347.445 200.91 348.034 200.546C348.793 200.077 348.78 190.478 347.991 167.476C347.379 149.651 346.653 133.155 346.378 130.817L345.877 126.567H326.439C308.027 126.567 307 126.467 307 124.672C307 123.086 311.24 90.0443 312.371 82.8173C312.72 80.5863 312.617 80.5673 300.397 80.5673C288.614 80.5673 288.021 80.6663 286.943 82.8173ZM78.962 86.3693C86.557 91.6053 93.135 96.7653 92.73 97.1703C92.475 97.4253 88.58 95.3483 84.075 92.5543C72.875 85.6073 72.293 85.4433 64.958 87.1543C49.082 90.8583 35.754 101.182 29.185 114.866C25.351 122.853 23.842 128.407 24.949 130.46C26.529 133.388 30.441 136.384 35 138.156C39.264 139.814 45.187 143.35 42 142.336C32.227 139.225 29.102 138.007 26.846 136.426C22.366 133.289 22 133.856 22 143.931C22 155.978 23.268 162.55 27.108 170.398C31.562 179.503 38.274 185.605 59.619 199.954C70.003 206.935 79.186 213.192 80.023 213.857C83.011 216.23 86 220.874 86 223.143C86 224.411 86.478 225.744 87.062 226.105C87.646 226.466 97.096 224.383 108.062 221.476C130.788 215.452 129.469 216.626 126.467 205.102C122.682 190.571 116.302 183.61 91.372 166.812C72.283 153.95 68.002 150.225 65.551 144.349C62.34 136.65 64.807 126.98 71.133 122.468C75.869 119.09 87.001 118.998 91.627 122.297C96.217 125.572 98.365 130.821 98.823 139.882C99.113 145.616 99.552 147.569 100.471 147.216C101.16 146.952 108.199 145.525 116.112 144.046C124.025 142.566 131.175 141.109 132 140.808C132.825 140.506 134.314 140.362 135.31 140.486C139.418 141.001 140.271 138.734 139.531 129.272C138.406 114.896 133.945 104.458 125.661 96.8223C116.33 88.2213 104.769 84.5773 87 84.6373C76.818 84.6713 76.575 84.7233 78.962 86.3693ZM361.536 88.2993C357.829 93.7543 358.435 94.5253 362.959 90.1073C366.578 86.5743 367.309 84.5673 364.977 84.5673C364.479 84.5673 362.931 86.2463 361.536 88.2993ZM268.2 88.7673C267.54 89.4273 267 90.5523 267 91.2673C267 93.1033 269.939 92.8883 270.664 91.0003C271.491 88.8463 269.723 87.2443 268.2 88.7673ZM456.653 93.1783C446.288 94.9653 437.634 96.6003 437.423 96.8113C437.059 97.1753 433 123.617 433 125.622C433 126.191 422.897 126.567 407.636 126.567H382.272L380.708 130.817C371.628 155.496 357.016 197.917 357.447 198.348C357.75 198.65 360.36 198.21 363.248 197.37C366.137 196.53 374.575 194.157 382 192.096C389.425 190.035 396.117 188.048 396.87 187.681C397.624 187.313 399.78 183.2 401.662 178.54C403.544 173.88 406.24 167.255 407.654 163.817L410.225 157.567H418.446C422.967 157.567 426.896 157.796 427.176 158.077C427.457 158.357 426.635 164.544 425.35 171.827C417.851 214.336 413.816 243.231 414.279 251.106C415.076 264.653 420.732 272.847 432.229 277.112C436.632 278.745 440.084 279.067 453.201 279.067C464.003 279.067 469.272 278.696 470.09 277.877C471.178 276.789 474.875 254.511 474.963 248.52C475 246.006 474.915 245.978 468.502 246.386C456.418 247.155 453.774 242.605 456.362 225.489C458.438 211.759 464.817 169.423 465.767 163.067L466.515 158.067L477.116 157.785L487.718 157.502L489.343 147.285C490.236 141.665 491.258 134.704 491.613 131.817L492.258 126.567H482.188C476.649 126.567 471.925 126.229 471.689 125.817C471.453 125.405 472.329 118.767 473.637 111.067C474.945 103.367 475.899 95.4613 475.757 93.4983L475.5 89.9293L456.653 93.1783ZM211 95.0673C211 96.5773 211.571 97.5673 212.441 97.5673C214.551 97.5673 215.354 95.6983 213.964 94.0233C212.16 91.8503 211 92.2583 211 95.0673ZM293.333 99.7373C292.315 101.48 290.854 103.116 290.087 103.371C289.32 103.627 289.941 102.2 291.465 100.201C294.881 95.7233 295.813 95.4913 293.333 99.7373ZM240.446 98.6543C239.416 100.322 241.733 102.234 243.113 100.854C244.267 99.7003 243.545 97.5673 242 97.5673C241.515 97.5673 240.816 98.0563 240.446 98.6543ZM334.02 99.0433C333.231 99.9933 333.155 100.567 333.819 100.567C335.027 100.567 336.436 98.6703 335.743 97.9763C335.491 97.7253 334.716 98.2053 334.02 99.0433ZM479.75 103.959C478.788 104.69 478 105.816 478 106.462C478 108.076 481.568 106.134 482.351 104.095C483.065 102.234 482.09 102.183 479.75 103.959ZM216.079 107.977C214.748 109.397 213.848 110.719 214.079 110.916C214.84 111.56 224.235 113.666 224.622 113.279C224.83 113.071 223.538 111.211 221.75 109.147L218.5 105.394L216.079 107.977ZM50 107.567C50 108.117 49.577 108.567 49.059 108.567C48.541 108.567 47.84 108.117 47.5 107.567C47.16 107.017 47.584 106.567 48.441 106.567C49.298 106.567 50 107.017 50 107.567ZM251.565 110.817C251.36 111.505 250.043 115.888 248.638 120.559C247.234 125.23 246.406 129.373 246.8 129.767C247.194 130.161 250.753 126.263 254.71 121.106L261.905 111.729L258.803 110.648C254.701 109.218 252.023 109.281 251.565 110.817ZM322 112.066C320.986 113.288 320.956 113.923 321.87 114.837C323.299 116.266 326.5 114.631 326.5 112.472C326.5 110.478 323.54 110.211 322 112.066ZM0 112.262C0 113.254 5.214 118.567 6.187 118.567C6.634 118.567 7 117.431 7 116.042C7 114.252 6.254 113.234 4.435 112.542C1.41 111.392 0 111.303 0 112.262ZM208.487 127.307C201.158 129.927 194.829 133.907 190.669 138.512C188.654 140.742 186.743 142.567 186.423 142.567C186.103 142.567 186.078 141.329 186.367 139.817C186.656 138.305 187.183 135.144 187.538 132.795L188.183 128.522L169.342 128.795L150.5 129.067L148.865 140.567C147.966 146.892 145.628 161.742 143.67 173.567C138.662 203.807 137.575 211.476 138.207 212.107C139.33 213.23 176.716 203.126 178.591 201.192C179.191 200.573 180.668 195.117 181.873 189.067C184.435 176.216 189.505 164.767 194.079 161.511C198.384 158.445 204.486 157.835 208.614 160.058C213.663 162.777 215.342 168.202 214.821 180.112L214.4 189.735L216.95 189.257C221.982 188.314 254.921 179.734 255.949 179.098C256.527 178.741 257 177.991 257 177.432C257 176.181 250.715 167.976 240.634 156.067C236.444 151.117 233.012 146.666 233.008 146.175C233.004 145.684 235.077 142.852 237.615 139.881C242.058 134.68 242.165 134.407 240.483 132.548C235.022 126.514 218.348 123.783 208.487 127.307ZM230.72 146.181C229.435 147.465 227 145.557 227 143.265C227 139.522 228.333 139.169 229.907 142.493C230.703 144.173 231.068 145.832 230.72 146.181ZM507.497 142.322C505.298 143.915 500.125 148.037 496 151.484C484.149 161.384 485.004 161.83 501.499 154.354C513.831 148.764 514.05 148.505 512.148 141.747L511.495 139.426L507.497 142.322ZM56.582 152.319C56.001 152.9 50.247 149.775 49.412 148.425C49.019 147.789 50.561 148.316 52.838 149.596C55.115 150.876 56.799 152.101 56.582 152.319ZM322.683 157.755C322.364 158.552 322.127 158.315 322.079 157.15C322.036 156.096 322.272 155.506 322.604 155.838C322.936 156.17 322.972 157.033 322.683 157.755ZM131 166.65C131 169.956 132.564 170.22 134.429 167.229C135.242 165.924 135.139 165.28 134 164.554C131.563 163 131 163.394 131 166.65ZM4 175.45C4 178.494 5.844 179.565 11 179.516C13.383 179.493 13.312 179.33 9.5 176.044C7.3 174.148 5.162 172.59 4.75 172.582C4.338 172.574 4 173.865 4 175.45ZM304 179.402C304 179.953 303.758 181.035 303.461 181.807C303.135 182.657 303.911 183.661 305.426 184.351C308.469 185.738 309.278 184.751 307.689 181.59C306.448 179.121 304 177.669 304 179.402ZM235 187.507C224.275 190.017 214.938 192.434 214.25 192.878C213.563 193.322 212.999 195.121 212.999 196.876C212.997 201.179 208.696 218.672 205.651 226.761C199.647 242.714 191.86 248.649 182.967 244.05C176.804 240.863 175.151 232.583 177.385 216.086C178.203 210.047 178.741 204.974 178.581 204.814C178.205 204.438 145.211 213.287 142.25 214.558C140.659 215.241 140 216.37 140 218.412C140 220 137.998 233.398 135.55 248.183C131.598 272.066 126.532 303.625 125.537 310.567C125.34 311.942 124.461 317.342 123.584 322.567C122.707 327.792 121.735 333.59 121.424 335.451C120.928 338.424 121.08 338.749 122.68 338.126C123.681 337.736 132.741 335.472 142.814 333.094C152.887 330.717 161.37 328.53 161.665 328.236C162.086 327.814 165.942 301.953 171.154 264.589C171.475 262.288 171.755 262.466 175.074 267.089C179.878 273.78 185.14 277.189 192.75 278.543C211.21 281.827 228.4 271.118 239.968 249.128L242.99 243.384L238.805 235.663L234.621 227.942L244.336 217.069C253.846 206.426 261 196.8 261 194.648C261 192.986 259.08 193.359 256.273 195.567C253.026 198.121 242.923 198.569 245 196.067C245.685 195.242 247.47 194.567 248.967 194.567C250.465 194.567 252.378 193.78 253.218 192.817C254.959 190.824 256.46 183.922 255.281 183.333C254.851 183.118 245.725 184.996 235 187.507ZM476 200.535C474.045 202.039 473.763 202.723 474.708 203.671C476.074 205.041 478.344 203.661 480.09 200.399C481.414 197.924 479.302 197.994 476 200.535ZM229.5 207.53C231.685 208.429 231.064 208.838 225.75 210.003C223.809 210.428 223 210.207 223 209.253C223 206.535 225.481 205.877 229.5 207.53ZM13.667 210.234C12.307 211.593 13.062 213.567 14.941 213.567C17.437 213.567 18.666 211.603 16.878 210.471C15.205 209.411 14.538 209.362 13.667 210.234ZM289 214.96C289 215.176 288.302 215.621 287.448 215.949C286.558 216.29 286.157 216.122 286.507 215.556C287.094 214.605 289 214.15 289 214.96ZM27.5 221.209C17.6 223.021 8.02701 224.765 6.22701 225.085L2.95399 225.666L3.564 232.367C4.709 244.958 10.552 259.397 17.85 267.67C28.658 279.92 53.079 286.151 74.463 282.115C83.315 280.444 83.491 280.353 88.779 274.745C94.014 269.193 94.634 269.235 90.727 274.875C89.657 276.419 89.023 277.923 89.317 278.218C89.612 278.512 93.031 277.083 96.915 275.042C109.232 268.57 119.328 256.92 124.457 243.264C126.978 236.551 129.694 221.928 128.62 220.853C128.255 220.489 124.929 220.902 121.228 221.772C117.528 222.641 108.311 224.821 100.747 226.615L86.994 229.877L85.955 233.735C82.707 245.795 66.347 251.645 56.618 244.225C52.171 240.833 48.153 232.32 47.343 224.574C46.994 221.236 46.437 218.372 46.104 218.21C45.772 218.048 37.4 219.397 27.5 221.209ZM305.72 228.155C304.192 228.984 303.21 230.097 303.538 230.629C304.523 232.223 312 235.692 312 234.555C312 233.356 309.259 226.546 308.801 226.607C308.635 226.629 307.249 227.325 305.72 228.155ZM306 247.567C306 248.117 306.675 248.567 307.5 248.567C308.325 248.567 309 248.117 309 247.567C309 247.017 308.325 246.567 307.5 246.567C306.675 246.567 306 247.017 306 247.567ZM485.172 252.223C485.365 253.224 486.305 254.195 487.261 254.379C489.682 254.845 489.44 252.873 486.911 251.519C485.121 250.562 484.872 250.663 485.172 252.223ZM232.473 273.954L224.619 285.84L226.92 287.704C229.952 290.158 230.448 290.071 231.94 286.817C235.577 278.882 241.035 264.173 240.705 263.192C240.497 262.573 236.792 267.416 232.473 273.954ZM292.514 272.544C291.649 273.944 293.904 277.766 295.318 277.295C295.968 277.078 296.64 276.181 296.81 275.302C297.174 273.425 293.448 271.033 292.514 272.544ZM0.431 278.679C0.0529998 279.29 0.339993 280.159 1.06799 280.609C2.66099 281.594 6.30099 279.863 5.46899 278.517C4.66199 277.211 1.271 277.32 0.431 278.679ZM396.553 289.482C396.231 290.003 396.394 290.692 396.915 291.014C397.436 291.336 398.125 291.173 398.447 290.652C398.769 290.131 398.606 289.442 398.085 289.12C397.564 288.798 396.875 288.961 396.553 289.482ZM235.981 292.09C234.954 293.328 235.021 294.311 236.342 297.34C237.235 299.39 238.44 302.378 239.02 303.98C239.716 305.904 240.411 306.556 241.065 305.902C242.122 304.845 239.202 290.567 237.929 290.567C237.553 290.567 236.676 291.252 235.981 292.09ZM119.569 293.092C117.678 294.522 117.688 294.606 120.039 297.108C122.23 299.441 122.502 299.507 123.15 297.866C124.307 294.932 124.093 291.565 122.75 291.599C122.063 291.616 120.631 292.288 119.569 293.092ZM260 293.567C260 294.117 260.675 294.567 261.5 294.567C262.325 294.567 263 294.117 263 293.567C263 293.017 262.325 292.567 261.5 292.567C260.675 292.567 260 293.017 260 293.567ZM25 312.249C20.875 314.79 15.7 318.038 13.5 319.466L9.5 322.062L15.5 322.639C18.8 322.956 22.079 323.016 22.786 322.771C23.866 322.397 31.013 313.005 33.404 308.817C34.611 306.704 32.799 307.444 25 312.249ZM64.667 309.234C64.3 309.6 64 310.5 64 311.234C64 313.004 66.639 312.949 67.324 311.165C68.132 309.059 66.226 307.674 64.667 309.234ZM103.066 310.987C102.318 311.889 100.226 314.973 98.418 317.84C95.368 322.678 95.247 323.183 96.742 324.835C97.629 325.814 98.772 326.476 99.282 326.306C100.301 325.967 105.138 311.591 104.699 310.207C104.549 309.735 103.815 310.086 103.066 310.987ZM277.534 313.817C278.496 318.324 280.737 323.568 281.699 323.561C282.582 323.554 286 317.941 286 316.499C286 315.633 278.69 310.567 277.44 310.567C277.111 310.567 277.153 312.029 277.534 313.817ZM217.575 315.146C212.512 317 212.547 316.945 214.535 319.98C216.893 323.578 218.174 323.245 221.893 318.067C225.531 313.001 224.793 312.502 217.575 315.146ZM254.373 316.317C254.652 317.279 255.385 320.092 256 322.567C258.254 331.63 258.22 331.589 261.433 329.239C263.15 327.985 263.039 327.545 259.412 321.239C255.786 314.936 253.255 312.463 254.373 316.317ZM402.192 325.402C406.621 333.215 408.68 336.169 409.276 335.567C409.549 335.292 410.046 333.267 410.381 331.067C410.981 327.129 410.906 327.008 405.555 323.317C402.566 321.255 399.842 319.567 399.502 319.567C399.162 319.567 400.373 322.193 402.192 325.402ZM230.603 335.216C227.521 339.973 225 344.388 225 345.029C225 345.669 226.301 347.44 227.892 348.963L230.784 351.734L232.318 346.901C233.162 344.242 234.586 339.367 235.483 336.067C236.379 332.767 237.343 329.279 237.624 328.317C238.822 324.214 235.817 327.165 230.603 335.216ZM185.5 346.956C183.611 348.362 183.595 348.541 185.213 350.183C186.77 351.764 186.983 351.774 187.548 350.303C187.89 349.412 188.019 347.96 187.835 347.075C187.536 345.639 187.286 345.626 185.5 346.956ZM268 349.889C268 350.066 268.717 352.316 269.594 354.889C271.153 359.465 272.28 360.541 273.479 358.601C274.221 357.401 270.32 349.567 268.98 349.567C268.441 349.567 268 349.712 268 349.889ZM102.639 356.261C101.513 357.387 101.954 358.567 103.5 358.567C104.325 358.567 105 358.144 105 357.626C105 356.365 103.438 355.462 102.639 356.261ZM134 360.567C134 361.117 134.45 361.567 135 361.567C135.55 361.567 136 361.117 136 360.567C136 360.017 135.55 359.567 135 359.567C134.45 359.567 134 360.017 134 360.567ZM204.469 370.617C203.519 372.155 204.82 373.147 206.104 371.863C206.822 371.145 206.839 370.586 206.156 370.164C205.596 369.818 204.837 370.022 204.469 370.617ZM304.122 377.492C308.172 384.859 313.971 392.93 314.694 392.206C315.344 391.557 308.816 379.406 305.352 374.817C301.349 369.515 300.615 371.113 304.122 377.492ZM129.307 376.817C126.462 379.951 123.636 384.536 124.2 385.101C124.46 385.36 126.304 384.333 128.299 382.819C130.892 380.853 131.938 379.282 131.964 377.317C132.008 373.991 131.891 373.969 129.307 376.817ZM228.75 375.144C228.337 375.56 228 376.815 228 377.934C228 379.405 228.302 379.665 229.094 378.873C229.695 378.272 230.033 377.016 229.844 376.084C229.655 375.151 229.163 374.728 228.75 375.144ZM192.692 387.317C191.439 389.524 188.881 398.781 189.385 399.285C189.976 399.876 195 389.364 195 387.538C195 386.395 193.308 386.233 192.692 387.317Z" fill="#3150A3"/>
</svg>
